<?xml version="1.0" encoding="utf-8"?>
<!-- Generator: Adobe Illustrator 16.0.4, SVG Export Plug-In . SVG Version: 6.00 Build 0)  -->
<!DOCTYPE svg PUBLIC "-//W3C//DTD SVG 1.1//EN" "http://www.w3.org/Graphics/SVG/1.1/DTD/svg11.dtd">
<svg version="1.1" id="Layer_1" xmlns="http://www.w3.org/2000/svg" xmlns:xlink="http://www.w3.org/1999/xlink" x="0px" y="0px"
	 width="122px" height="122.5px" viewBox="0 0 122 122.5" enable-background="new 0 0 122 122.5" xml:space="preserve">
<rect fill="#ECECEC" width="122" height="122.5"/>
<g>
	<path fill="#252525" d="M33.262,58.313c0,3.538-1.312,5.49-3.618,5.49c-2.033,0-3.409-1.904-3.441-5.346
		c0-3.489,1.505-5.41,3.618-5.41C32.014,53.048,33.262,55,33.262,58.313z M27.612,58.474c0,2.705,0.833,4.242,2.113,4.242
		c1.44,0,2.129-1.681,2.129-4.338c0-2.562-0.656-4.242-2.113-4.242C28.508,54.136,27.612,55.641,27.612,58.474z"/>
	<path fill="#252525" d="M38.443,52.84h5.811v1.168h-4.418v3.586h4.082v1.152h-4.082v4.882h-1.393V52.84z"/>
	<path fill="#252525" d="M49.757,63.628l-0.112-0.977h-0.048c-0.432,0.608-1.265,1.152-2.369,1.152
		c-1.569,0-2.369-1.104-2.369-2.225c0-1.873,1.665-2.897,4.658-2.881v-0.16c0-0.641-0.176-1.793-1.761-1.793
		c-0.72,0-1.473,0.225-2.017,0.576l-0.32-0.929c0.64-0.416,1.568-0.688,2.545-0.688c2.369,0,2.945,1.616,2.945,3.169v2.897
		c0,0.672,0.032,1.328,0.128,1.856H49.757z M49.549,59.675c-1.537-0.032-3.281,0.239-3.281,1.744c0,0.912,0.608,1.345,1.329,1.345
		c1.008,0,1.648-0.641,1.873-1.297c0.048-0.144,0.08-0.304,0.08-0.448V59.675z"/>
	<path fill="#252525" d="M53.596,55.881l1.521,4.354c0.256,0.704,0.464,1.345,0.624,1.985h0.048c0.176-0.641,0.4-1.281,0.656-1.985
		l1.504-4.354h1.473l-3.041,7.747h-1.345l-2.945-7.747H53.596z"/>
	<path fill="#252525" d="M67.598,59.69c0,2.865-1.985,4.113-3.857,4.113c-2.097,0-3.713-1.536-3.713-3.985
		c0-2.593,1.697-4.113,3.841-4.113C66.093,55.705,67.598,57.321,67.598,59.69z M61.451,59.771c0,1.696,0.977,2.978,2.353,2.978
		c1.345,0,2.353-1.265,2.353-3.01c0-1.312-0.656-2.978-2.321-2.978C62.171,56.761,61.451,58.298,61.451,59.771z"/>
	<path fill="#252525" d="M69.371,58.298c0-0.912-0.016-1.696-0.064-2.417h1.232l0.048,1.521h0.064c0.352-1.04,1.2-1.696,2.145-1.696
		c0.16,0,0.272,0.016,0.4,0.048v1.328c-0.144-0.032-0.288-0.048-0.48-0.048c-0.992,0-1.696,0.752-1.889,1.809
		c-0.032,0.192-0.064,0.416-0.064,0.656v4.13h-1.393V58.298z"/>
	<path fill="#252525" d="M76.235,53.704c0.016,0.48-0.336,0.864-0.896,0.864c-0.496,0-0.849-0.384-0.849-0.864
		c0-0.496,0.368-0.881,0.88-0.881C75.899,52.823,76.235,53.208,76.235,53.704z M74.667,63.628v-7.747h1.409v7.747H74.667z"/>
	<path fill="#252525" d="M80.107,53.656v2.225h2.017v1.072h-2.017v4.178c0,0.96,0.272,1.505,1.056,1.505
		c0.368,0,0.641-0.048,0.816-0.097l0.064,1.057c-0.272,0.112-0.704,0.192-1.249,0.192c-0.656,0-1.184-0.208-1.521-0.593
		c-0.4-0.416-0.544-1.104-0.544-2.017v-4.226H77.53v-1.072h1.201v-1.856L80.107,53.656z"/>
	<path fill="#252525" d="M84.394,60.011c0.032,1.904,1.249,2.688,2.657,2.688c1.008,0,1.617-0.176,2.145-0.399l0.24,1.008
		c-0.496,0.225-1.344,0.48-2.577,0.48c-2.385,0-3.81-1.568-3.81-3.905s1.376-4.178,3.633-4.178c2.529,0,3.201,2.225,3.201,3.649
		c0,0.288-0.032,0.512-0.048,0.656H84.394z M88.524,59.002c0.016-0.896-0.368-2.289-1.953-2.289c-1.425,0-2.049,1.312-2.161,2.289
		H88.524z"/>
	<path fill="#252525" d="M91.434,62.188c0.416,0.271,1.152,0.561,1.856,0.561c1.024,0,1.505-0.513,1.505-1.153
		c0-0.672-0.4-1.04-1.441-1.424c-1.393-0.496-2.049-1.265-2.049-2.193c0-1.248,1.009-2.272,2.673-2.272
		c0.784,0,1.473,0.224,1.905,0.479l-0.352,1.024c-0.304-0.191-0.865-0.448-1.585-0.448c-0.832,0-1.296,0.48-1.296,1.057
		c0,0.641,0.464,0.929,1.473,1.312c1.345,0.513,2.033,1.185,2.033,2.337c0,1.36-1.056,2.321-2.897,2.321
		c-0.849,0-1.633-0.208-2.177-0.528L91.434,62.188z"/>
</g>
</svg>
