<?xml version="1.0" encoding="utf-8"?>
<!-- Generator: Adobe Illustrator 16.0.4, SVG Export Plug-In . SVG Version: 6.00 Build 0)  -->
<!DOCTYPE svg PUBLIC "-//W3C//DTD SVG 1.1//EN" "http://www.w3.org/Graphics/SVG/1.1/DTD/svg11.dtd">
<svg version="1.1" id="Layer_1" xmlns="http://www.w3.org/2000/svg" xmlns:xlink="http://www.w3.org/1999/xlink" x="0px" y="0px"
	 width="36.145px" height="18px" viewBox="50.855 544 36.145 18" enable-background="new 50.855 544 36.145 18"
	 xml:space="preserve">
<g>
	<path fill="none" d="M54.501,560.25h28.853v-14.5H54.501V560.25z M65.83,551.441c0.156-0.453,0.382-0.85,0.675-1.189
		c0.294-0.34,0.651-0.609,1.075-0.811c0.423-0.199,0.902-0.299,1.436-0.299c0.386,0,0.755,0.051,1.104,0.154
		c0.351,0.104,0.661,0.258,0.936,0.46c0.272,0.203,0.5,0.459,0.68,0.765c0.18,0.308,0.293,0.66,0.34,1.061h-1.22
		c-0.034-0.232-0.105-0.438-0.215-0.615c-0.11-0.176-0.249-0.324-0.415-0.445c-0.167-0.119-0.354-0.209-0.561-0.27
		c-0.207-0.061-0.423-0.09-0.649-0.09c-0.38,0-0.708,0.076-0.985,0.23c-0.277,0.152-0.502,0.358-0.675,0.614
		c-0.173,0.257-0.302,0.55-0.385,0.875c-0.083,0.327-0.125,0.66-0.125,1c0,0.341,0.042,0.674,0.125,1
		c0.083,0.327,0.212,0.619,0.385,0.875c0.173,0.257,0.397,0.462,0.675,0.615s0.605,0.229,0.985,0.229
		c0.319,0.008,0.603-0.034,0.85-0.125c0.246-0.09,0.455-0.22,0.625-0.39s0.298-0.378,0.385-0.625c0.087-0.246,0.134-0.52,0.141-0.82
		h-1.9v-0.95h3.04v3.761h-0.8l-0.19-0.84c-0.334,0.38-0.667,0.643-1,0.79c-0.334,0.146-0.717,0.22-1.149,0.22
		c-0.533,0-1.013-0.098-1.436-0.295c-0.424-0.197-0.781-0.465-1.075-0.805c-0.293-0.341-0.519-0.736-0.675-1.19
		c-0.156-0.453-0.234-0.936-0.234-1.45C65.595,552.376,65.673,551.896,65.83,551.441z"/>
	<path fill="#FFFFFF" d="M66.504,555.522c0.294,0.34,0.651,0.607,1.075,0.805c0.423,0.197,0.902,0.295,1.436,0.295
		c0.433,0,0.815-0.073,1.149-0.22c0.333-0.147,0.666-0.41,1-0.79l0.19,0.84h0.8v-3.761h-3.04v0.95h1.9
		c-0.007,0.301-0.054,0.574-0.141,0.82c-0.087,0.247-0.215,0.455-0.385,0.625s-0.379,0.3-0.625,0.39
		c-0.247,0.091-0.53,0.133-0.85,0.125c-0.38,0-0.708-0.076-0.985-0.229s-0.502-0.358-0.675-0.615
		c-0.173-0.256-0.302-0.548-0.385-0.875c-0.083-0.326-0.125-0.659-0.125-1c0-0.34,0.042-0.673,0.125-1
		c0.083-0.325,0.212-0.618,0.385-0.875c0.173-0.256,0.397-0.462,0.675-0.614c0.277-0.154,0.605-0.23,0.985-0.23
		c0.227,0,0.442,0.029,0.649,0.09c0.206,0.061,0.394,0.15,0.561,0.27c0.166,0.121,0.305,0.27,0.415,0.445
		c0.109,0.178,0.181,0.383,0.215,0.615h1.22c-0.047-0.4-0.16-0.753-0.34-1.061c-0.18-0.306-0.407-0.562-0.68-0.765
		c-0.274-0.202-0.585-0.356-0.936-0.46c-0.35-0.104-0.719-0.154-1.104-0.154c-0.533,0-1.013,0.1-1.436,0.299
		c-0.424,0.201-0.781,0.471-1.075,0.811c-0.293,0.34-0.519,0.736-0.675,1.189c-0.156,0.455-0.234,0.935-0.234,1.44
		c0,0.515,0.078,0.997,0.234,1.45C65.986,554.786,66.211,555.182,66.504,555.522z"/>
	<path fill="#FFFFFF" d="M53.501,544.75v16.5h30.853v-16.5H53.501z M83.354,560.25H54.501v-14.5h28.853V560.25z"/>
</g>
</svg>
