<?xml version="1.0" encoding="utf-8"?>
<!-- Generator: Adobe Illustrator 16.0.4, SVG Export Plug-In . SVG Version: 6.00 Build 0)  -->
<!DOCTYPE svg PUBLIC "-//W3C//DTD SVG 1.1//EN" "http://www.w3.org/Graphics/SVG/1.1/DTD/svg11.dtd">
<svg version="1.1" id="Layer_1" xmlns="http://www.w3.org/2000/svg" xmlns:xlink="http://www.w3.org/1999/xlink" x="0px" y="0px"
	 width="224.917px" height="45.501px" viewBox="0 0 224.917 45.501" enable-background="new 0 0 224.917 45.501"
	 xml:space="preserve">
<g>
	<path fill="none" d="M9.001,37.299h207.661V8.289H9.001V37.299z M202.197,25.711h2.234v1.018c0,1.02,0.475,1.387,1.227,1.387
		s1.225-0.367,1.225-1.387c0-1.037-0.473-1.812-2.02-3.096c-1.979-1.649-2.602-2.831-2.602-4.461c0-2.281,1.182-3.585,3.482-3.585
		s3.482,1.304,3.482,3.585v0.449h-2.236v-0.592c0-1.018-0.43-1.406-1.182-1.406s-1.184,0.389-1.184,1.406
		c0,1.039,0.475,1.813,2.021,3.097c1.979,1.649,2.602,2.831,2.602,4.461c0,2.282-1.203,3.585-3.525,3.585s-3.525-1.303-3.525-3.585
		V25.711z M190.051,15.75h3.568c2.451,0,3.506,1.08,3.506,3.279v1.121c0,1.467-0.494,2.403-1.549,2.871v0.041
		c1.184,0.469,1.57,1.527,1.57,3.016v2.199c0,0.693,0.021,1.203,0.258,1.732h-2.408c-0.129-0.367-0.215-0.592-0.215-1.752v-2.241
		c0-1.323-0.473-1.813-1.549-1.813h-0.816v5.807h-2.365V15.75z M178.271,15.75h6.449v2.037h-4.084v3.973h3.246v2.037h-3.246v4.176
		h4.084v2.037h-6.449V15.75z M166.061,15.75h7.311v2.037h-2.473V30.01h-2.365V17.787h-2.473V15.75z M156.732,15.75h3.461
		l2.408,14.26h-2.387l-0.408-2.588h-2.902l-0.408,2.588h-2.172L156.732,15.75z M143.167,15.75h6.45v2.037h-4.085v3.973h3.246v2.037
		h-3.246v4.176h4.085v2.037h-6.45V15.75z M130.119,15.75h2.365v6.111h2.688V15.75h2.408v14.26h-2.408v-6.111h-2.688v6.111h-2.365
		V15.75z M117.91,15.75h7.311v2.037h-2.474V30.01h-2.364V17.787h-2.473V15.75z M98.327,15.75h2.968l2.386,8.535h0.043V15.75h2.106
		v14.26h-2.429l-2.903-10.328h-0.043V30.01h-2.128V15.75z M90.396,15.75h2.364v14.26h-2.364V15.75z M70.919,25.711h2.236v1.018
		c0,1.02,0.473,1.387,1.225,1.387c0.753,0,1.227-0.367,1.227-1.387c0-1.037-0.474-1.812-2.021-3.096
		c-1.979-1.649-2.602-2.831-2.602-4.461c0-2.281,1.183-3.585,3.482-3.585c2.301,0,3.483,1.304,3.483,3.585v0.449h-2.235v-0.592
		c0-1.018-0.431-1.406-1.184-1.406c-0.752,0-1.182,0.389-1.182,1.406c0,1.039,0.473,1.813,2.021,3.097
		c1.978,1.649,2.602,2.831,2.602,4.461c0,2.282-1.204,3.585-3.526,3.585s-3.525-1.303-3.525-3.585V25.711z M66.534,15.75h2.279
		v1.936l-1.032,2.261h-0.967l0.623-2.037h-0.903V15.75z M56.904,15.75h7.31v2.037H61.74V30.01h-2.363V17.787h-2.473V15.75z
		 M47.575,15.75h3.462l2.407,14.26h-2.386l-0.409-2.588h-2.902l-0.408,2.588h-2.172L47.575,15.75z M32.742,15.75h2.365v6.111h2.688
		V15.75h2.408v14.26h-2.408v-6.111h-2.688v6.111h-2.365V15.75z M18.534,15.75l1.247,11.244h0.043l1.117-11.244h2.279l1.161,11.326
		h0.043l1.204-11.326h2.064l-1.678,14.26h-3.139l-0.838-7.598h-0.043l-0.839,7.598H17.91l-1.677-14.26H18.534z"/>
	<polygon fill="none" points="49.208,18.275 49.166,18.275 48.048,25.486 50.327,25.486 	"/>
	<polygon fill="none" points="158.365,18.275 158.322,18.275 157.205,25.486 159.484,25.486 	"/>
	<path fill="none" d="M194.76,20.659v-1.405c0-1.02-0.365-1.467-1.205-1.467h-1.139v4.379h0.924
		C194.223,22.166,194.76,21.799,194.76,20.659z"/>
	<polygon fill="#41d6c3" points="21.157,30.01 21.996,22.412 22.039,22.412 22.876,30.01 26.015,30.01 27.693,15.75 25.628,15.75 
		24.424,27.076 24.381,27.076 23.22,15.75 20.941,15.75 19.824,26.994 19.781,26.994 18.534,15.75 16.233,15.75 17.91,30.01 	"/>
	<polygon fill="#41d6c3" points="35.107,23.898 37.794,23.898 37.794,30.01 40.203,30.01 40.203,15.75 37.794,15.75 37.794,21.861 
		35.107,21.861 35.107,15.75 32.742,15.75 32.742,30.01 35.107,30.01 	"/>
	<path fill="#41d6c3" d="M47.747,27.422h2.902l0.409,2.588h2.386l-2.407-14.26h-3.462l-2.408,14.26h2.172L47.747,27.422z
		 M49.166,18.275h0.043l1.118,7.211h-2.278L49.166,18.275z"/>
	<polygon fill="#41d6c3" points="59.376,30.01 61.74,30.01 61.74,17.787 64.213,17.787 64.213,15.75 56.904,15.75 56.904,17.787 
		59.376,17.787 	"/>
	<polygon fill="#41d6c3" points="66.814,19.946 67.781,19.946 68.813,17.686 68.813,15.75 66.534,15.75 66.534,17.909 
		67.437,17.909 	"/>
	<path fill="#41d6c3" d="M74.445,30.172c2.322,0,3.526-1.303,3.526-3.585c0-1.63-0.624-2.812-2.602-4.461
		c-1.548-1.283-2.021-2.058-2.021-3.097c0-1.018,0.43-1.406,1.182-1.406c0.753,0,1.184,0.389,1.184,1.406v0.592h2.235v-0.449
		c0-2.281-1.183-3.585-3.483-3.585c-2.3,0-3.482,1.304-3.482,3.585c0,1.63,0.623,2.812,2.602,4.461
		c1.548,1.283,2.021,2.059,2.021,3.096c0,1.02-0.474,1.387-1.227,1.387c-0.752,0-1.225-0.367-1.225-1.387v-1.018h-2.236v0.876
		C70.919,28.869,72.123,30.172,74.445,30.172z"/>
	<rect x="90.396" y="15.75" fill="#41d6c3" width="2.364" height="14.26"/>
	<polygon fill="#41d6c3" points="100.455,19.682 100.498,19.682 103.401,30.01 105.83,30.01 105.83,15.75 103.723,15.75 
		103.723,24.285 103.68,24.285 101.294,15.75 98.327,15.75 98.327,30.01 100.455,30.01 	"/>
	<polygon fill="#41d6c3" points="120.382,30.01 122.747,30.01 122.747,17.787 125.22,17.787 125.22,15.75 117.91,15.75 
		117.91,17.787 120.382,17.787 	"/>
	<polygon fill="#41d6c3" points="132.484,23.898 135.171,23.898 135.171,30.01 137.58,30.01 137.58,15.75 135.171,15.75 
		135.171,21.861 132.484,21.861 132.484,15.75 130.119,15.75 130.119,30.01 132.484,30.01 	"/>
	<polygon fill="#41d6c3" points="149.618,27.973 145.533,27.973 145.533,23.797 148.779,23.797 148.779,21.76 145.533,21.76 
		145.533,17.787 149.618,17.787 149.618,15.75 143.167,15.75 143.167,30.01 149.618,30.01 	"/>
	<path fill="#41d6c3" d="M156.904,27.422h2.902l0.408,2.588h2.387l-2.408-14.26h-3.461l-2.409,14.26h2.172L156.904,27.422z
		 M158.322,18.275h0.043l1.119,7.211h-2.279L158.322,18.275z"/>
	<polygon fill="#41d6c3" points="168.533,30.01 170.898,30.01 170.898,17.787 173.371,17.787 173.371,15.75 166.061,15.75 
		166.061,17.787 168.533,17.787 	"/>
	<polygon fill="#41d6c3" points="184.721,27.973 180.637,27.973 180.637,23.797 183.883,23.797 183.883,21.76 180.637,21.76 
		180.637,17.787 184.721,17.787 184.721,15.75 178.271,15.75 178.271,30.01 184.721,30.01 	"/>
	<path fill="#41d6c3" d="M192.416,24.203h0.816c1.076,0,1.549,0.49,1.549,1.813v2.241c0,1.16,0.086,1.385,0.215,1.752h2.408
		c-0.236-0.529-0.258-1.039-0.258-1.732v-2.199c0-1.488-0.387-2.547-1.57-3.016v-0.041c1.055-0.468,1.549-1.404,1.549-2.871v-1.121
		c0-2.199-1.055-3.279-3.506-3.279h-3.568v14.26h2.365V24.203z M192.416,17.787h1.139c0.84,0,1.205,0.447,1.205,1.467v1.405
		c0,1.14-0.537,1.507-1.42,1.507h-0.924V17.787z"/>
	<path fill="#41d6c3" d="M205.723,30.172c2.322,0,3.525-1.303,3.525-3.585c0-1.63-0.623-2.812-2.602-4.461
		c-1.547-1.283-2.021-2.058-2.021-3.097c0-1.018,0.432-1.406,1.184-1.406s1.182,0.389,1.182,1.406v0.592h2.236v-0.449
		c0-2.281-1.182-3.585-3.482-3.585s-3.482,1.304-3.482,3.585c0,1.63,0.623,2.812,2.602,4.461c1.547,1.283,2.02,2.059,2.02,3.096
		c0,1.02-0.473,1.387-1.225,1.387s-1.227-0.367-1.227-1.387v-1.018h-2.234v0.876C202.197,28.869,203.4,30.172,205.723,30.172z"/>
	<path fill="#41d6c3" d="M8.001,7.289v31.01h209.661V7.289H8.001z M216.662,37.299H9.001V8.289h207.661V37.299z"/>
</g>
</svg>
