<?xml version="1.0" encoding="utf-8"?>
<!-- Generator: Adobe Illustrator 16.0.4, SVG Export Plug-In . SVG Version: 6.00 Build 0)  -->
<!DOCTYPE svg PUBLIC "-//W3C//DTD SVG 1.1//EN" "http://www.w3.org/Graphics/SVG/1.1/DTD/svg11.dtd">
<svg version="1.1" id="Layer_1" xmlns="http://www.w3.org/2000/svg" xmlns:xlink="http://www.w3.org/1999/xlink" x="0px" y="0px"
	 width="251.875px" height="54.667px" viewBox="0 0 251.875 54.667" enable-background="new 0 0 251.875 54.667"
	 xml:space="preserve">
<g>
	<polygon fill="none" points="177.42,22.207 177.371,22.207 176.119,30.736 178.672,30.736 	"/>
	<polygon fill="none" points="55.091,22.207 55.043,22.207 53.79,30.736 56.344,30.736 	"/>
	<path fill="none" d="M9.132,44.798h234.193V10.306H9.132V44.798z M226.539,31.001h2.506v1.204c0,1.205,0.529,1.639,1.373,1.639
		s1.373-0.434,1.373-1.639c0-1.229-0.529-2.145-2.264-3.662c-2.217-1.951-2.916-3.349-2.916-5.276c0-2.698,1.325-4.24,3.903-4.24
		c2.577,0,3.902,1.542,3.902,4.24v0.53h-2.505v-0.698c0-1.205-0.482-1.663-1.325-1.663s-1.325,0.458-1.325,1.663
		c0,1.229,0.529,2.145,2.265,3.661c2.217,1.952,2.915,3.35,2.915,5.277c0,2.698-1.35,4.24-3.951,4.24s-3.951-1.542-3.951-4.24
		V31.001z M212.928,19.22h4c2.746,0,3.928,1.276,3.928,3.878v1.326c0,1.734-0.555,2.842-1.735,3.396v0.048
		c1.325,0.555,1.759,1.808,1.759,3.566v2.602c0,0.819,0.024,1.422,0.289,2.048h-2.698c-0.145-0.434-0.241-0.698-0.241-2.071v-2.65
		c0-1.565-0.529-2.145-1.734-2.145h-0.916v6.866h-2.65V19.22z M199.727,19.219h7.229v2.41h-4.578v4.698h3.638v2.409h-3.638v4.939
		h4.578v2.408h-7.229V19.219z M186.043,19.22h8.192v2.409h-2.771v14.455h-2.65V21.629h-2.771V19.22z M175.588,19.219h3.88
		l2.698,16.865h-2.674l-0.459-3.059h-3.252l-0.458,3.059h-2.433L175.588,19.219z M160.387,19.219h7.229v2.41h-4.578v4.698h3.639
		v2.409h-3.639v4.939h4.578v2.408h-7.229V19.219z M145.765,19.22h2.65v7.228h3.012V19.22h2.698v16.864h-2.698v-7.228h-3.012v7.228
		h-2.65V19.22z M132.082,19.22h8.191v2.409h-2.771v14.455h-2.65V21.629h-2.771V19.22z M110.135,19.219h3.326l2.674,10.096h0.049
		V19.219h2.361v16.866h-2.723l-3.253-12.216h-0.048v12.216h-2.387V19.219z M101.247,19.219h2.65v16.865h-2.65V19.219z
		 M79.422,31.001h2.506v1.204c0,1.205,0.529,1.639,1.372,1.639c0.844,0,1.374-0.434,1.374-1.639c0-1.229-0.53-2.145-2.265-3.662
		c-2.217-1.951-2.915-3.349-2.915-5.276c0-2.698,1.324-4.24,3.902-4.24s3.902,1.542,3.902,4.24v0.53h-2.504v-0.698
		c0-1.205-0.482-1.663-1.326-1.663c-0.843,0-1.324,0.458-1.324,1.663c0,1.229,0.529,2.145,2.264,3.661
		c2.217,1.952,2.916,3.35,2.916,5.277c0,2.698-1.35,4.24-3.951,4.24c-2.603,0-3.951-1.542-3.951-4.24V31.001z M74.507,19.219h2.554
		v2.289l-1.156,2.674H74.82l0.698-2.408h-1.012V19.219z M63.715,19.22h8.191v2.409h-2.771v14.455h-2.65V21.629h-2.771V19.22z
		 M53.26,19.219h3.879l2.699,16.865h-2.675l-0.458-3.059h-3.252l-0.458,3.059h-2.434L53.26,19.219z M36.638,19.22h2.65v7.228H42.3
		V19.22h2.698v16.864H42.3v-7.228h-3.012v7.228h-2.65V19.22z M20.715,19.22l1.397,13.3h0.048l1.252-13.3h2.554l1.301,13.396h0.048
		l1.349-13.396h2.313L29.1,36.084h-3.519l-0.939-8.986h-0.048l-0.939,8.986h-3.638L18.137,19.22H20.715z"/>
	<path fill="none" d="M218.205,25.025v-1.662c0-1.204-0.41-1.734-1.35-1.734h-1.277v5.18h1.036
		C217.602,26.809,218.205,26.375,218.205,25.025z"/>
	<polygon fill="#41d6c3" points="23.654,36.084 24.594,27.098 24.642,27.098 25.581,36.084 29.1,36.084 30.979,19.22 28.666,19.22 
		27.316,32.615 27.268,32.615 25.967,19.22 23.413,19.22 22.161,32.52 22.112,32.52 20.715,19.22 18.137,19.22 20.016,36.084 	"/>
	<polygon fill="#41d6c3" points="39.289,28.856 42.3,28.856 42.3,36.084 44.999,36.084 44.999,19.22 42.3,19.22 42.3,26.447 
		39.289,26.447 39.289,19.22 36.638,19.22 36.638,36.084 39.289,36.084 	"/>
	<path fill="#41d6c3" d="M53.453,33.025h3.252l0.458,3.059h2.675l-2.699-16.865H53.26l-2.698,16.865h2.434L53.453,33.025z
		 M55.043,22.207h0.048l1.253,8.529H53.79L55.043,22.207z"/>
	<polygon fill="#41d6c3" points="66.485,36.084 69.136,36.084 69.136,21.629 71.906,21.629 71.906,19.22 63.715,19.22 
		63.715,21.629 66.485,21.629 	"/>
	<polygon fill="#41d6c3" points="74.82,24.182 75.904,24.182 77.061,21.508 77.061,19.219 74.507,19.219 74.507,21.773 
		75.519,21.773 	"/>
	<path fill="#41d6c3" d="M83.373,36.277c2.602,0,3.951-1.542,3.951-4.24c0-1.928-0.699-3.325-2.916-5.277
		c-1.734-1.517-2.264-2.433-2.264-3.661c0-1.205,0.481-1.663,1.324-1.663c0.844,0,1.326,0.458,1.326,1.663v0.698h2.504v-0.53
		c0-2.698-1.324-4.24-3.902-4.24s-3.902,1.542-3.902,4.24c0,1.928,0.698,3.325,2.915,5.276c1.734,1.518,2.265,2.434,2.265,3.662
		c0,1.205-0.53,1.639-1.374,1.639c-0.843,0-1.372-0.434-1.372-1.639v-1.204h-2.506v1.036C79.422,34.735,80.771,36.277,83.373,36.277
		z"/>
	<rect x="101.247" y="19.219" fill="#41d6c3" width="2.65" height="16.865"/>
	<polygon fill="#41d6c3" points="112.521,23.869 112.569,23.869 115.822,36.085 118.545,36.085 118.545,19.219 116.184,19.219 
		116.184,29.314 116.135,29.314 113.461,19.219 110.135,19.219 110.135,36.085 112.521,36.085 	"/>
	<polygon fill="#41d6c3" points="134.853,36.084 137.503,36.084 137.503,21.629 140.273,21.629 140.273,19.22 132.082,19.22 
		132.082,21.629 134.853,21.629 	"/>
	<polygon fill="#41d6c3" points="148.415,28.856 151.427,28.856 151.427,36.084 154.125,36.084 154.125,19.22 151.427,19.22 
		151.427,26.447 148.415,26.447 148.415,19.22 145.765,19.22 145.765,36.084 148.415,36.084 	"/>
	<polygon fill="#41d6c3" points="167.615,33.676 163.037,33.676 163.037,28.736 166.676,28.736 166.676,26.327 163.037,26.327 
		163.037,21.629 167.615,21.629 167.615,19.219 160.387,19.219 160.387,36.084 167.615,36.084 	"/>
	<path fill="#41d6c3" d="M175.781,33.025h3.252l0.459,3.059h2.674l-2.698-16.865h-3.88l-2.697,16.865h2.433L175.781,33.025z
		 M177.371,22.207h0.049l1.252,8.529h-2.553L177.371,22.207z"/>
	<polygon fill="#41d6c3" points="188.814,36.084 191.465,36.084 191.465,21.629 194.235,21.629 194.235,19.22 186.043,19.22 
		186.043,21.629 188.814,21.629 	"/>
	<polygon fill="#41d6c3" points="206.955,33.676 202.377,33.676 202.377,28.736 206.015,28.736 206.015,26.327 202.377,26.327 
		202.377,21.629 206.955,21.629 206.955,19.219 199.727,19.219 199.727,36.084 206.955,36.084 	"/>
	<path fill="#41d6c3" d="M215.578,29.218h0.916c1.205,0,1.734,0.579,1.734,2.145v2.65c0,1.373,0.097,1.638,0.241,2.071h2.698
		c-0.265-0.626-0.289-1.229-0.289-2.048v-2.602c0-1.759-0.434-3.012-1.759-3.566V27.82c1.181-0.555,1.735-1.662,1.735-3.396v-1.326
		c0-2.602-1.182-3.878-3.928-3.878h-4v16.864h2.65V29.218z M215.578,21.629h1.277c0.939,0,1.35,0.53,1.35,1.734v1.662
		c0,1.35-0.604,1.783-1.591,1.783h-1.036V21.629z"/>
	<path fill="#41d6c3" d="M230.49,36.277c2.602,0,3.951-1.542,3.951-4.24c0-1.928-0.698-3.325-2.915-5.277
		c-1.735-1.517-2.265-2.433-2.265-3.661c0-1.205,0.482-1.663,1.325-1.663s1.325,0.458,1.325,1.663v0.698h2.505v-0.53
		c0-2.698-1.325-4.24-3.902-4.24c-2.578,0-3.903,1.542-3.903,4.24c0,1.928,0.699,3.325,2.916,5.276
		c1.734,1.518,2.264,2.434,2.264,3.662c0,1.205-0.529,1.639-1.373,1.639s-1.373-0.434-1.373-1.639v-1.204h-2.506v1.036
		C226.539,34.735,227.889,36.277,230.49,36.277z"/>
	<path fill="#41d6c3" d="M8.132,9.306v36.492h236.193V9.306H8.132z M243.325,44.798H9.132V10.306h234.193V44.798z"/>
</g>
</svg>
