<?xml version="1.0" encoding="utf-8"?>
<!-- Generator: Adobe Illustrator 16.0.4, SVG Export Plug-In . SVG Version: 6.00 Build 0)  -->
<!DOCTYPE svg PUBLIC "-//W3C//DTD SVG 1.1//EN" "http://www.w3.org/Graphics/SVG/1.1/DTD/svg11.dtd">
<svg version="1.1" id="Layer_1" xmlns="http://www.w3.org/2000/svg" xmlns:xlink="http://www.w3.org/1999/xlink" x="0px" y="0px"
	 width="459px" height="108.416px" viewBox="0 0 459 108.416" enable-background="new 0 0 459 108.416" xml:space="preserve">
<g>
	<defs>
		<rect id="SVGID_5_" x="10.327" y="9.094" width="438.328" height="87.624"/>
	</defs>
	<clipPath id="SVGID_2_">
		<use xlink:href="#SVGID_5_"  overflow="visible"/>
	</clipPath>
	<path fill="#41d6c3" clip-path="url(#SVGID_2_)" d="M448.042,38.645l0.613-0.228V9.095H10.327v29.564l0.573,0.24
		c5.787,2.433,9.526,7.931,9.526,14.007S16.687,64.48,10.9,66.912l-0.573,0.241v29.565h438.328V67.396l-0.613-0.228
		c-6.087-2.253-10.176-7.984-10.176-14.262S441.955,40.896,448.042,38.645 M435.935,52.906c0,6.808,4.309,13.044,10.789,15.718
		v26.272H12.259V68.323c6.156-2.839,10.099-8.825,10.099-15.417s-3.943-12.578-10.099-15.418V10.916h434.465v26.272
		C440.243,39.862,435.935,46.099,435.935,52.906"/>
	<polygon fill="#41d6c3" clip-path="url(#SVGID_2_)" points="73.918,61.09 73.844,61.09 71.825,40.301 67.861,40.301 65.916,60.941 65.842,60.941 
		63.673,40.301 59.672,40.301 62.589,66.475 68.235,66.475 69.693,52.527 69.768,52.527 71.226,66.475 76.685,66.475 79.602,40.301 
		76.012,40.301 	"/>
	<polygon fill="#41d6c3" clip-path="url(#SVGID_2_)" points="97.175,51.518 92.501,51.518 92.501,40.3 88.388,40.3 88.388,66.475 92.501,66.475 
		92.501,55.258 97.175,55.258 97.175,66.475 101.363,66.475 101.363,40.3 97.175,40.3 	"/>
	<path fill="#41d6c3" clip-path="url(#SVGID_2_)" d="M114.187,40.301L110,66.475h3.776l0.71-4.749h5.048l0.71,4.749h4.15l-4.188-26.174H114.187z
		 M115.01,58.174l1.945-13.237h0.074l1.945,13.237H115.01z"/>
	<polygon fill="#41d6c3" clip-path="url(#SVGID_2_)" points="130.416,44.039 134.716,44.039 134.716,66.475 138.829,66.475 138.829,44.039 
		143.129,44.039 143.129,40.3 130.416,40.3 	"/>
	<polygon fill="#41d6c3" clip-path="url(#SVGID_2_)" points="148.662,44.264 150.232,44.264 149.148,48.004 150.831,48.004 152.625,43.853 
		152.625,40.301 148.662,40.301 	"/>
	<path fill="#41d6c3" clip-path="url(#SVGID_2_)" d="M164.776,52.004c-2.692-2.355-3.515-3.776-3.515-5.684c0-1.869,0.748-2.579,2.057-2.579
		s2.057,0.71,2.057,2.579v1.084h3.889v-0.822c0-4.188-2.057-6.58-6.058-6.58s-6.058,2.392-6.058,6.58
		c0,2.992,1.084,5.16,4.524,8.189c2.692,2.355,3.515,3.775,3.515,5.683c0,1.87-0.822,2.543-2.131,2.543s-2.131-0.673-2.131-2.543
		v-1.869h-3.889v1.608c0,4.188,2.094,6.58,6.131,6.58c4.039,0,6.133-2.393,6.133-6.58C169.301,57.202,168.217,55.033,164.776,52.004
		"/>
	<rect fill="#41d6c3" x="191.66" y="40.301" clip-path="url(#SVGID_2_)" width="4.113" height="26.174"/>
	<polygon fill="#41d6c3" clip-path="url(#SVGID_2_)" points="214.843,55.967 214.769,55.967 210.617,40.301 205.457,40.301 205.457,66.475 
		209.159,66.475 209.159,47.518 209.233,47.518 214.282,66.475 218.507,66.475 218.507,40.301 214.843,40.301 	"/>
	<polygon fill="#41d6c3" clip-path="url(#SVGID_2_)" points="239.521,44.039 243.819,44.039 243.819,66.475 247.933,66.475 247.933,44.039 
		252.233,44.039 252.233,40.3 239.521,40.3 	"/>
	<polygon fill="#41d6c3" clip-path="url(#SVGID_2_)" points="269.544,51.518 264.87,51.518 264.87,40.3 260.757,40.3 260.757,66.475 264.87,66.475 
		264.87,55.258 269.544,55.258 269.544,66.475 273.731,66.475 273.731,40.3 269.544,40.3 	"/>
	<polygon fill="#41d6c3" clip-path="url(#SVGID_2_)" points="283.452,66.475 294.671,66.475 294.671,62.735 287.565,62.735 287.565,55.069 
		293.212,55.069 293.212,51.331 287.565,51.331 287.565,44.039 294.671,44.039 294.671,40.3 283.452,40.3 	"/>
	<path fill="#41d6c3" clip-path="url(#SVGID_2_)" d="M307.046,40.301l-4.188,26.174h3.776l0.71-4.749h5.049l0.711,4.749h4.15l-4.188-26.174H307.046
		z M307.869,58.174l1.944-13.237h0.074l1.945,13.237H307.869z"/>
	<polygon fill="#41d6c3" clip-path="url(#SVGID_2_)" points="323.274,44.039 327.575,44.039 327.575,66.475 331.688,66.475 331.688,44.039 
		335.987,44.039 335.987,40.3 323.274,40.3 	"/>
	<polygon fill="#41d6c3" clip-path="url(#SVGID_2_)" points="344.512,66.475 355.729,66.475 355.729,62.735 348.626,62.735 348.626,55.069 
		354.271,55.069 354.271,51.331 348.626,51.331 348.626,44.039 355.729,44.039 355.729,40.3 344.512,40.3 	"/>
	<path fill="#41d6c3" clip-path="url(#SVGID_2_)" d="M377.342,59.259c0-2.73-0.674-4.675-2.729-5.534v-0.076c1.832-0.859,2.691-2.579,2.691-5.271
		v-2.056c0-4.039-1.832-6.021-6.095-6.021h-6.207v26.174h4.114V55.818h1.42c1.87,0,2.691,0.897,2.691,3.328v4.113
		c0,2.131,0.15,2.542,0.375,3.215h4.188c-0.411-0.973-0.448-1.906-0.448-3.178V59.259z M373.191,49.312
		c0,2.093-0.935,2.766-2.468,2.766h-1.607v-8.039h1.98c1.459,0,2.095,0.823,2.095,2.693V49.312z"/>
	<path fill="#41d6c3" clip-path="url(#SVGID_2_)" d="M393.868,52.004c-2.693-2.355-3.515-3.776-3.515-5.684c0-1.869,0.747-2.579,2.056-2.579
		s2.057,0.71,2.057,2.579v1.084h3.889v-0.822c0-4.188-2.057-6.58-6.057-6.58c-4.002,0-6.059,2.392-6.059,6.58
		c0,2.992,1.085,5.16,4.525,8.189c2.692,2.355,3.514,3.775,3.514,5.683c0,1.87-0.821,2.543-2.131,2.543
		c-1.309,0-2.131-0.673-2.131-2.543v-1.869h-3.889v1.608c0,4.188,2.094,6.58,6.132,6.58s6.133-2.393,6.133-6.58
		C398.393,57.202,397.308,55.033,393.868,52.004"/>
</g>
</svg>
