<?xml version="1.0" encoding="utf-8"?>
<!-- Generator: Adobe Illustrator 16.0.4, SVG Export Plug-In . SVG Version: 6.00 Build 0)  -->
<!DOCTYPE svg PUBLIC "-//W3C//DTD SVG 1.1//EN" "http://www.w3.org/Graphics/SVG/1.1/DTD/svg11.dtd">
<svg version="1.1" id="Layer_1" xmlns="http://www.w3.org/2000/svg" xmlns:xlink="http://www.w3.org/1999/xlink" x="0px" y="0px"
	 width="369.001px" height="89.876px" viewBox="0 0 369.001 89.876" enable-background="new 0 0 369.001 89.876"
	 xml:space="preserve">
<g>
	<defs>
		<rect fill="#41d6c3" id="SVGID_7_" x="10.154" y="8.818" width="348.599" height="72.783"/>
	</defs>
	<clipPath id="SVGID_2_">
		<use xlink:href="#SVGID_7_"  overflow="visible"/>
	</clipPath>
	<path fill="#41d6c3" clip-path="url(#SVGID_2_)" d="M358.105,33.678l0.647-0.248V8.817H10.154v24.804l0.604,0.264
		c4.505,1.967,7.416,6.412,7.416,11.325s-2.911,9.358-7.416,11.325l-0.604,0.264v24.803h348.599V56.99l-0.647-0.248
		c-4.738-1.822-7.921-6.457-7.921-11.532S353.367,35.5,358.105,33.678 M348.149,45.21c0,5.603,3.438,10.857,8.569,13.13V79.6H12.188
		V58.085c4.878-2.403,8.021-7.44,8.021-12.875s-3.143-10.472-8.021-12.875V10.82h344.531v21.26
		C351.587,34.352,348.149,39.607,348.149,45.21"/>
	<polygon fill="#41d6c3" clip-path="url(#SVGID_2_)" points="56.633,51.961 56.571,51.961 54.905,34.812 51.636,34.812 50.032,51.838 49.97,51.838 
		48.181,34.812 44.881,34.812 47.286,56.403 51.944,56.403 53.147,44.898 53.209,44.898 54.412,56.403 58.915,56.403 61.321,34.812 
		58.36,34.812 	"/>
	<polygon fill="#41d6c3" clip-path="url(#SVGID_2_)" points="75.818,44.064 71.963,44.064 71.963,34.812 68.569,34.812 68.569,56.404 
		71.963,56.404 71.963,47.149 75.818,47.149 75.818,56.404 79.273,56.404 79.273,34.812 75.818,34.812 	"/>
	<path fill="#41d6c3" clip-path="url(#SVGID_2_)" d="M89.853,34.812l-3.454,21.59h3.115l0.587-3.916h4.164l0.586,3.916h3.424l-3.455-21.59H89.853z
		 M90.532,49.556l1.604-10.919h0.062l1.604,10.919H90.532z"/>
	<polygon fill="#41d6c3" clip-path="url(#SVGID_2_)" points="103.24,37.896 106.788,37.896 106.788,56.404 110.181,56.404 110.181,37.896 
		113.728,37.896 113.728,34.812 103.24,34.812 	"/>
	<polygon fill="#41d6c3" clip-path="url(#SVGID_2_)" points="118.292,38.081 119.588,38.081 118.693,41.166 120.081,41.166 121.562,37.742 
		121.562,34.812 118.292,34.812 	"/>
	<path fill="#41d6c3" clip-path="url(#SVGID_2_)" d="M131.587,44.466c-2.221-1.942-2.9-3.114-2.9-4.688c0-1.542,0.617-2.129,1.697-2.129
		s1.696,0.587,1.696,2.129v0.895h3.208v-0.678c0-3.455-1.696-5.43-4.997-5.43c-3.3,0-4.997,1.975-4.997,5.43
		c0,2.467,0.895,4.256,3.732,6.754c2.221,1.943,2.899,3.116,2.899,4.689c0,1.541-0.679,2.098-1.758,2.098s-1.759-0.557-1.759-2.098
		v-1.543h-3.208v1.326c0,3.455,1.728,5.43,5.06,5.43c3.331,0,5.059-1.975,5.059-5.43C135.319,48.754,134.425,46.965,131.587,44.466"
		/>
	<rect fill="#41d6c3" x="153.765" y="34.812" clip-path="url(#SVGID_2_)" width="3.394" height="21.593"/>
	<polygon fill="#41d6c3" clip-path="url(#SVGID_2_)" points="172.89,47.736 172.827,47.736 169.403,34.811 165.147,34.811 165.147,56.403 
		168.2,56.403 168.2,40.766 168.263,40.766 172.427,56.403 175.912,56.403 175.912,34.811 172.89,34.811 	"/>
	<polygon fill="#41d6c3" clip-path="url(#SVGID_2_)" points="193.247,37.896 196.794,37.896 196.794,56.404 200.188,56.404 200.188,37.896 
		203.735,37.896 203.735,34.812 193.247,34.812 	"/>
	<polygon fill="#41d6c3" clip-path="url(#SVGID_2_)" points="218.016,44.064 214.16,44.064 214.16,34.812 210.767,34.812 210.767,56.404 
		214.16,56.404 214.16,47.149 218.016,47.149 218.016,56.404 221.471,56.404 221.471,34.812 218.016,34.812 	"/>
	<polygon fill="#41d6c3" clip-path="url(#SVGID_2_)" points="229.49,56.403 238.743,56.403 238.743,53.318 232.884,53.318 232.884,46.996 
		237.542,46.996 237.542,43.91 232.884,43.91 232.884,37.896 238.743,37.896 238.743,34.811 229.49,34.811 	"/>
	<path fill="#41d6c3" clip-path="url(#SVGID_2_)" d="M248.954,34.812l-3.455,21.59h3.115l0.586-3.916h4.164l0.586,3.916h3.424l-3.454-21.59H248.954
		z M249.632,49.556l1.604-10.919h0.062l1.604,10.919H249.632z"/>
	<polygon fill="#41d6c3" clip-path="url(#SVGID_2_)" points="262.341,37.896 265.888,37.896 265.888,56.404 269.28,56.404 269.28,37.896 
		272.828,37.896 272.828,34.812 262.341,34.812 	"/>
	<polygon fill="#41d6c3" clip-path="url(#SVGID_2_)" points="279.86,56.403 289.114,56.403 289.114,53.318 283.253,53.318 283.253,46.996 
		287.911,46.996 287.911,43.91 283.253,43.91 283.253,37.896 289.114,37.896 289.114,34.811 279.86,34.811 	"/>
	<path fill="#41d6c3" clip-path="url(#SVGID_2_)" d="M306.942,50.45c0-2.253-0.555-3.856-2.252-4.565v-0.062c1.512-0.709,2.221-2.127,2.221-4.348
		v-1.697c0-3.332-1.511-4.966-5.027-4.966h-5.12v21.591h3.394v-8.791h1.172c1.542,0,2.221,0.741,2.221,2.746v3.393
		c0,1.758,0.123,2.098,0.309,2.652h3.455c-0.34-0.801-0.371-1.572-0.371-2.621V50.45z M303.519,42.245
		c0,1.728-0.771,2.282-2.035,2.282h-1.326v-6.631h1.635c1.203,0,1.727,0.678,1.727,2.221V42.245z"/>
	<path fill="#41d6c3" clip-path="url(#SVGID_2_)" d="M320.576,44.466c-2.222-1.942-2.899-3.114-2.899-4.688c0-1.542,0.617-2.129,1.696-2.129
		s1.696,0.587,1.696,2.129v0.895h3.208v-0.678c0-3.455-1.696-5.43-4.997-5.43s-4.997,1.975-4.997,5.43
		c0,2.467,0.895,4.256,3.732,6.754c2.222,1.943,2.899,3.116,2.899,4.689c0,1.541-0.678,2.098-1.758,2.098s-1.758-0.557-1.758-2.098
		v-1.543h-3.209v1.326c0,3.455,1.729,5.43,5.059,5.43c3.332,0,5.059-1.975,5.059-5.43C324.308,48.754,323.413,46.965,320.576,44.466
		"/>
</g>
</svg>
