<?xml version="1.0" encoding="utf-8"?>
<!-- Generator: Adobe Illustrator 18.1.0, SVG Export Plug-In . SVG Version: 6.00 Build 0)  -->
<svg version="1.1" id="Layer_1" xmlns="http://www.w3.org/2000/svg" xmlns:xlink="http://www.w3.org/1999/xlink" x="0px" y="0px"
	 width="100%" height="100%" viewBox="0 0 42.7 39.8" enable-background="new 0 0 42.7 39.8" xml:space="preserve">
<g>
	<g>
		<path fill="#FFFFFF" d="M23.7,0.1C15,0.1,7.6,6.3,5.4,14.8L0,23.1l5.3,1.2c0.4,1.9,1.1,3.7,2,5.4h17.5c-1,5.9-9.2,8-9.2,8
			c2.5,1.3,5.3,2,8.3,2c10.5,0,19-8.9,19-19.8S34.2,0.1,23.7,0.1z M15.9,18.6c-1.5,0-2.7-1.2-2.7-2.7s1.2-2.7,2.7-2.7
			s2.7,1.2,2.7,2.7S17.4,18.6,15.9,18.6z"/>
	</g>
</g>
</svg>
