<?xml version="1.0" encoding="utf-8"?>
<!-- Generator: Adobe Illustrator 16.0.4, SVG Export Plug-In . SVG Version: 6.00 Build 0)  -->
<!DOCTYPE svg PUBLIC "-//W3C//DTD SVG 1.1//EN" "http://www.w3.org/Graphics/SVG/1.1/DTD/svg11.dtd">
<svg version="1.1" id="Layer_1" xmlns="http://www.w3.org/2000/svg" xmlns:xlink="http://www.w3.org/1999/xlink" x="0px" y="0px"
	 width="108.481px" height="54.333px" viewBox="-48.27 409 108.481 54.333" enable-background="new -48.27 409 108.481 54.333"
	 xml:space="preserve">
<g>
	<path fill="none" d="M4.83,433.247c-2.136,0-3.072,1.969-3.24,3.434h6.168C7.783,435.335,7.206,433.247,4.83,433.247z"/>
	<path fill="none" d="M-40.369,458.513h93.781v-44.486h-93.781V458.513z M22.926,431.999h1.8v-2.784l2.064-0.552v3.336h3.023v1.609
		H26.79v6.264c0,1.439,0.407,2.256,1.584,2.256c0.552,0,0.96-0.072,1.224-0.143l0.096,1.584c-0.408,0.166-1.056,0.287-1.872,0.287
		c-0.983,0-1.775-0.312-2.279-0.889c-0.601-0.624-0.816-1.656-0.816-3.023v-6.336h-1.8V431.999z M11.214,431.999h2.352l1.657,2.496
		c0.431,0.648,0.792,1.248,1.175,1.896h0.073c0.383-0.696,0.768-1.297,1.151-1.92l1.633-2.473h2.279l-3.96,5.617l4.08,6h-2.399
		L17.551,441c-0.456-0.672-0.841-1.321-1.248-2.016h-0.049c-0.383,0.694-0.792,1.319-1.225,2.016l-1.68,2.616h-2.328l4.128-5.93
		L11.214,431.999z M4.998,431.735c3.792,0,4.801,3.336,4.801,5.473c0,0.432-0.049,0.768-0.073,0.982H1.566
		c0.048,2.857,1.872,4.033,3.983,4.033c1.513,0,2.425-0.264,3.217-0.6l0.359,1.512c-0.744,0.336-2.016,0.721-3.864,0.721
		c-3.575,0-5.712-2.353-5.712-5.856C-0.45,434.495,1.614,431.735,4.998,431.735z M-15.569,427.438h2.28l5.184,8.186
		c1.2,1.896,2.136,3.6,2.904,5.256l0.049-0.024c-0.193-2.159-0.241-4.128-0.241-6.649v-6.768h1.969v16.178h-2.112l-5.137-8.209
		c-1.128-1.8-2.208-3.647-3.023-5.4l-0.072,0.025c0.12,2.039,0.168,3.983,0.168,6.672v6.912h-1.968V427.438z"/>
	<path fill="#41d6c3" d="M-41.869,412.526v47.486h96.781v-47.486H-41.869z M53.412,458.513h-93.781v-44.486h93.781V458.513z"/>
	<rect x="54.912" y="412.526" fill="#41d6c3" width="0.001" height="47.486"/>
	<path fill="#41d6c3" d="M-13.602,436.704c0-2.688-0.048-4.633-0.168-6.672l0.072-0.025c0.815,1.753,1.896,3.601,3.023,5.4
		l5.137,8.209h2.112v-16.178h-1.969v6.768c0,2.521,0.048,4.49,0.241,6.649l-0.049,0.024c-0.769-1.656-1.704-3.36-2.904-5.256
		l-5.184-8.186h-2.28v16.178h1.968V436.704z"/>
	<path fill="#41d6c3" d="M5.262,443.856c1.849,0,3.12-0.385,3.864-0.721l-0.359-1.512c-0.792,0.336-1.704,0.6-3.217,0.6
		c-2.111,0-3.936-1.176-3.983-4.033h8.159c0.024-0.215,0.073-0.551,0.073-0.982c0-2.137-1.009-5.473-4.801-5.473
		c-3.384,0-5.448,2.76-5.448,6.265C-0.45,441.504,1.687,443.856,5.262,443.856z M4.83,433.247c2.376,0,2.953,2.088,2.928,3.434H1.59
		C1.758,435.216,2.694,433.247,4.83,433.247z"/>
	<path fill="#41d6c3" d="M13.35,443.616l1.68-2.616c0.433-0.696,0.842-1.321,1.225-2.016h0.049c0.407,0.694,0.792,1.344,1.248,2.016
		l1.704,2.616h2.399l-4.08-6l3.96-5.617h-2.279l-1.633,2.473c-0.384,0.623-0.769,1.224-1.151,1.92h-0.073
		c-0.383-0.648-0.744-1.248-1.175-1.896l-1.657-2.496h-2.352l3.936,5.688l-4.128,5.93H13.35z"/>
	<path fill="#41d6c3" d="M24.726,439.944c0,1.367,0.216,2.399,0.816,3.023c0.504,0.576,1.296,0.889,2.279,0.889
		c0.816,0,1.464-0.121,1.872-0.287l-0.096-1.584c-0.264,0.07-0.672,0.143-1.224,0.143c-1.177,0-1.584-0.816-1.584-2.256v-6.264
		h3.023v-1.609H26.79v-3.336l-2.064,0.552v2.784h-1.8v1.609h1.8V439.944z"/>
</g>
</svg>
