<?xml version="1.0" encoding="utf-8"?>
<!-- Generator: Adobe Illustrator 16.0.4, SVG Export Plug-In . SVG Version: 6.00 Build 0)  -->
<!DOCTYPE svg PUBLIC "-//W3C//DTD SVG 1.1//EN" "http://www.w3.org/Graphics/SVG/1.1/DTD/svg11.dtd">
<svg version="1.1" id="Layer_1" xmlns="http://www.w3.org/2000/svg" xmlns:xlink="http://www.w3.org/1999/xlink" x="0px" y="0px"
	 width="99.92px" height="63.5px" viewBox="-3.5 93.75 99.92 63.5" enable-background="new -3.5 93.75 99.92 63.5"
	 xml:space="preserve">
<g>
	<path fill="none" d="M3.614,145.643h86.541v-40.944H3.614V145.643z M61.789,121.675h1.485v-2.335l2.547-0.615v2.95h2.484v1.952
		h-2.484v4.563c0,1.253,0.341,1.911,1.338,1.911c0.445,0,0.785-0.062,1.019-0.127l0.043,1.995c-0.382,0.149-1.062,0.255-1.889,0.255
		c-0.956,0-1.763-0.318-2.25-0.85c-0.554-0.594-0.808-1.527-0.808-2.887v-4.861h-1.485V121.675z M50.685,121.674h2.908l1.231,1.955
		c0.34,0.551,0.637,1.061,0.934,1.59h0.064c0.297-0.572,0.594-1.103,0.891-1.634l1.147-1.911h2.844l-3.46,4.969l3.523,5.369h-2.95
		l-1.273-2.059c-0.34-0.552-0.637-1.104-0.934-1.677h-0.043c-0.297,0.594-0.594,1.104-0.935,1.677l-1.188,2.059h-2.887l3.588-5.264
		L50.685,121.674z M45.25,121.441c3.354,0,4.458,2.759,4.458,5.029c0,0.49-0.043,0.871-0.085,1.104h-6.92
		c0.063,1.868,1.527,2.675,3.184,2.675c1.21,0,2.08-0.17,2.866-0.467l0.382,1.805c-0.891,0.36-2.123,0.637-3.608,0.637
		c-3.354,0-5.329-2.059-5.329-5.223C40.197,124.137,41.938,121.441,45.25,121.441z M26.398,117.705h2.971l3.694,6.135
		c0.955,1.592,1.782,3.248,2.44,4.797h0.042c-0.169-1.91-0.232-3.756-0.232-5.943v-4.988h2.42v14.307h-2.696l-3.736-6.282
		c-0.913-1.571-1.867-3.333-2.567-4.946l-0.064,0.021c0.106,1.847,0.127,3.735,0.127,6.092v5.115h-2.397V117.705z"/>
	<path fill="none" d="M45.101,123.225c-1.614,0-2.293,1.464-2.398,2.525h4.543C47.266,124.795,46.842,123.225,45.101,123.225z"/>
	<path fill="#41d6c3" d="M2.022,103.106v44.128h89.726v-44.128H2.022z M90.155,145.643H3.614v-40.944h86.541V145.643z"/>
	<path fill="#41d6c3" d="M28.795,126.896c0-2.356-0.021-4.245-0.127-6.092l0.064-0.021c0.7,1.613,1.654,3.375,2.567,4.946
		l3.736,6.282h2.696v-14.307h-2.42v4.988c0,2.188,0.063,4.033,0.232,5.943h-0.042c-0.658-1.549-1.485-3.205-2.44-4.797l-3.694-6.135
		h-2.971v14.307h2.397V126.896z"/>
	<path fill="#41d6c3" d="M45.526,132.225c1.485,0,2.718-0.276,3.608-0.637l-0.382-1.805c-0.786,0.297-1.656,0.467-2.866,0.467
		c-1.656,0-3.12-0.807-3.184-2.675h6.92c0.042-0.233,0.085-0.614,0.085-1.104c0-2.271-1.104-5.029-4.458-5.029
		c-3.312,0-5.053,2.695-5.053,5.561C40.197,130.166,42.171,132.225,45.526,132.225z M45.101,123.225c1.741,0,2.165,1.57,2.145,2.525
		h-4.543C42.808,124.688,43.487,123.225,45.101,123.225z"/>
	<path fill="#41d6c3" d="M53.445,132.012l1.188-2.059c0.341-0.572,0.638-1.083,0.935-1.677h0.043
		c0.297,0.573,0.594,1.125,0.934,1.677l1.273,2.059h2.95l-3.523-5.369l3.46-4.969h-2.844l-1.147,1.911
		c-0.297,0.531-0.594,1.062-0.891,1.634h-0.064c-0.297-0.529-0.594-1.039-0.934-1.59l-1.231-1.955h-2.908l3.461,5.074l-3.588,5.264
		H53.445z"/>
	<path fill="#41d6c3" d="M63.274,128.488c0,1.359,0.254,2.293,0.808,2.887c0.487,0.531,1.294,0.85,2.25,0.85
		c0.827,0,1.507-0.105,1.889-0.255l-0.043-1.995c-0.233,0.064-0.573,0.127-1.019,0.127c-0.997,0-1.338-0.658-1.338-1.911v-4.563
		h2.484v-1.952h-2.484v-2.95l-2.547,0.615v2.335h-1.485v1.952h1.485V128.488z"/>
</g>
</svg>
