<?xml version="1.0" encoding="utf-8"?>
<!-- Generator: Adobe Illustrator 16.0.4, SVG Export Plug-In . SVG Version: 6.00 Build 0)  -->
<!DOCTYPE svg PUBLIC "-//W3C//DTD SVG 1.1//EN" "http://www.w3.org/Graphics/SVG/1.1/DTD/svg11.dtd">
<svg version="1.1" id="Layer_1" xmlns="http://www.w3.org/2000/svg" xmlns:xlink="http://www.w3.org/1999/xlink" x="0px" y="0px"
	 width="36.145px" height="18px" viewBox="140.855 544 36.145 18" enable-background="new 140.855 544 36.145 18"
	 xml:space="preserve">
<g>
	<path fill="none" d="M144.501,560.25h28.853v-14.5h-28.853V560.25z M159.81,549.312h3.41c0.786,0,1.377,0.17,1.77,0.51
		s0.59,0.814,0.59,1.42c0,0.34-0.05,0.622-0.149,0.846c-0.101,0.223-0.218,0.403-0.351,0.539c-0.134,0.137-0.265,0.235-0.395,0.295
		c-0.13,0.061-0.226,0.1-0.285,0.12v0.021c0.106,0.014,0.222,0.047,0.345,0.1c0.123,0.055,0.238,0.139,0.345,0.255
		c0.106,0.117,0.195,0.27,0.266,0.455c0.069,0.188,0.104,0.42,0.104,0.7c0,0.42,0.032,0.802,0.096,1.145
		c0.062,0.345,0.16,0.59,0.295,0.735h-1.341c-0.094-0.153-0.147-0.323-0.164-0.51c-0.018-0.188-0.025-0.366-0.025-0.54
		c0-0.326-0.021-0.608-0.061-0.845c-0.039-0.236-0.112-0.434-0.22-0.591c-0.106-0.155-0.252-0.271-0.435-0.345
		c-0.184-0.073-0.419-0.11-0.705-0.11h-1.84v2.94h-1.25V549.312z M152.54,549.312h1.32l3.26,5.26h0.021v-5.26h1.189v7.14h-1.32
		l-3.25-5.25h-0.029v5.25h-1.19V549.312z"/>
	<path fill="none" d="M164.02,552.277c0.207-0.189,0.31-0.475,0.31-0.855c0-0.226-0.033-0.41-0.1-0.555
		c-0.067-0.143-0.159-0.255-0.275-0.335c-0.117-0.08-0.25-0.133-0.399-0.16c-0.15-0.026-0.306-0.04-0.466-0.04h-2.029v2.23h2.05
		C163.509,552.562,163.813,552.467,164.02,552.277z"/>
	<polygon fill="#FFFFFF" points="153.73,551.202 153.759,551.202 157.009,556.452 158.33,556.452 158.33,549.312 157.14,549.312 
		157.14,554.572 157.12,554.572 153.86,549.312 152.54,549.312 152.54,556.452 153.73,556.452 	"/>
	<path fill="#FFFFFF" d="M161.06,553.512h1.84c0.286,0,0.521,0.037,0.705,0.11c0.183,0.074,0.328,0.189,0.435,0.345
		c0.107,0.157,0.181,0.354,0.22,0.591c0.04,0.236,0.061,0.519,0.061,0.845c0,0.174,0.008,0.353,0.025,0.54
		c0.017,0.187,0.07,0.356,0.164,0.51h1.341c-0.135-0.146-0.232-0.391-0.295-0.735c-0.063-0.343-0.096-0.725-0.096-1.145
		c0-0.28-0.035-0.513-0.104-0.7c-0.07-0.186-0.159-0.338-0.266-0.455c-0.106-0.116-0.222-0.2-0.345-0.255
		c-0.123-0.053-0.238-0.086-0.345-0.1v-0.021c0.06-0.021,0.155-0.06,0.285-0.12c0.13-0.06,0.261-0.158,0.395-0.295
		c0.133-0.136,0.25-0.316,0.351-0.539c0.1-0.224,0.149-0.506,0.149-0.846c0-0.605-0.197-1.08-0.59-1.42s-0.983-0.51-1.77-0.51h-3.41
		v7.14h1.25V553.512z M161.06,550.332h2.029c0.16,0,0.315,0.014,0.466,0.04c0.149,0.027,0.282,0.08,0.399,0.16
		c0.116,0.08,0.208,0.192,0.275,0.335c0.066,0.145,0.1,0.329,0.1,0.555c0,0.381-0.103,0.666-0.31,0.855s-0.511,0.285-0.91,0.285
		h-2.05V550.332z"/>
	<path fill="#FFFFFF" d="M143.501,544.75v16.5h30.853v-16.5H143.501z M173.354,560.25h-28.853v-14.5h28.853V560.25z"/>
</g>
</svg>
