<?xml version="1.0" encoding="utf-8"?>
<!-- Generator: Adobe Illustrator 16.0.4, SVG Export Plug-In . SVG Version: 6.00 Build 0)  -->
<!DOCTYPE svg PUBLIC "-//W3C//DTD SVG 1.1//EN" "http://www.w3.org/Graphics/SVG/1.1/DTD/svg11.dtd">
<svg version="1.1" id="Layer_1" xmlns="http://www.w3.org/2000/svg" xmlns:xlink="http://www.w3.org/1999/xlink" x="0px" y="0px"
	 width="45.145px" height="18px" viewBox="-48.27 544 45.145 18" enable-background="new -48.27 544 45.145 18"
	 xml:space="preserve">
<g>
	<path fill="none" d="M-44.125,560.232h37.5v-14.5h-37.5V560.232z M-12.35,553.725c-0.107-0.16-0.247-0.282-0.42-0.365
		c-0.175-0.083-0.368-0.135-0.586-0.154c-0.217-0.021-0.438-0.026-0.664-0.021v-0.851c0.187,0.008,0.372-0.006,0.56-0.039
		c0.187-0.033,0.353-0.092,0.5-0.176c0.146-0.082,0.265-0.197,0.354-0.345c0.091-0.147,0.136-0.325,0.136-0.54
		c0-0.3-0.103-0.54-0.306-0.72c-0.202-0.181-0.465-0.271-0.784-0.271c-0.2,0-0.374,0.041-0.521,0.121
		c-0.146,0.079-0.268,0.188-0.365,0.324c-0.097,0.137-0.168,0.29-0.215,0.46s-0.066,0.345-0.06,0.524h-1.141
		c0.014-0.34,0.077-0.654,0.19-0.944s0.268-0.542,0.465-0.755c0.196-0.213,0.436-0.38,0.715-0.5c0.28-0.12,0.597-0.18,0.95-0.18
		c0.273,0,0.541,0.039,0.805,0.119s0.5,0.197,0.71,0.351s0.378,0.348,0.506,0.585c0.126,0.236,0.189,0.508,0.189,0.814
		c0,0.354-0.08,0.662-0.24,0.926s-0.41,0.455-0.75,0.574v0.021c0.4,0.08,0.712,0.278,0.936,0.595
		c0.223,0.317,0.335,0.702,0.335,1.155c0,0.334-0.067,0.632-0.2,0.895c-0.134,0.264-0.313,0.487-0.54,0.671s-0.49,0.324-0.79,0.425
		c-0.3,0.1-0.617,0.149-0.95,0.149c-0.406,0-0.762-0.058-1.064-0.175c-0.304-0.116-0.558-0.281-0.761-0.495
		c-0.203-0.213-0.357-0.47-0.465-0.77c-0.106-0.3-0.163-0.633-0.17-1h1.141c-0.014,0.427,0.091,0.782,0.314,1.064
		c0.224,0.283,0.559,0.426,1.005,0.426c0.38,0,0.698-0.108,0.955-0.325c0.256-0.217,0.385-0.525,0.385-0.925
		C-12.19,554.102-12.243,553.885-12.35,553.725z M-21.33,550.595c0.24,0,0.473-0.021,0.7-0.06c0.227-0.041,0.432-0.106,0.615-0.201
		c0.183-0.092,0.34-0.213,0.47-0.359s0.215-0.327,0.255-0.54h0.93v7h-1.25v-4.94h-1.72V550.595z M-25.26,553.174h2.91v1.081h-2.91
		V553.174z M-32.675,551.424c0.156-0.453,0.382-0.85,0.675-1.189s0.651-0.609,1.075-0.811c0.423-0.199,0.902-0.299,1.435-0.299
		c0.387,0,0.756,0.051,1.105,0.154s0.661,0.258,0.935,0.46c0.273,0.203,0.5,0.459,0.681,0.765c0.18,0.308,0.293,0.66,0.34,1.061
		h-1.22c-0.034-0.232-0.105-0.438-0.216-0.615c-0.109-0.176-0.249-0.324-0.415-0.445c-0.167-0.119-0.354-0.209-0.56-0.27
		c-0.207-0.061-0.423-0.09-0.65-0.09c-0.38,0-0.708,0.076-0.984,0.23c-0.277,0.152-0.502,0.358-0.675,0.614
		c-0.174,0.257-0.303,0.55-0.386,0.875c-0.083,0.327-0.125,0.66-0.125,1c0,0.341,0.042,0.674,0.125,1
		c0.083,0.327,0.212,0.619,0.386,0.875c0.173,0.257,0.397,0.462,0.675,0.615c0.276,0.153,0.604,0.229,0.984,0.229
		c0.32,0.008,0.604-0.034,0.851-0.125c0.246-0.09,0.455-0.22,0.625-0.39s0.298-0.378,0.385-0.625c0.087-0.246,0.133-0.52,0.14-0.82
		h-1.899v-0.95h3.04v3.761h-0.8l-0.19-0.84c-0.334,0.38-0.667,0.643-1,0.79c-0.334,0.146-0.717,0.22-1.15,0.22
		c-0.532,0-1.012-0.098-1.435-0.295c-0.424-0.197-0.782-0.465-1.075-0.805c-0.293-0.341-0.519-0.736-0.675-1.19
		c-0.157-0.453-0.235-0.936-0.235-1.45C-32.91,552.358-32.832,551.879-32.675,551.424z M-39.25,549.295h3.15
		c0.506,0,0.92,0.074,1.24,0.22c0.319,0.147,0.566,0.329,0.739,0.55c0.173,0.22,0.292,0.46,0.355,0.72
		c0.062,0.261,0.095,0.5,0.095,0.72c0,0.221-0.032,0.459-0.095,0.715c-0.063,0.258-0.183,0.496-0.355,0.716s-0.42,0.401-0.739,0.545
		c-0.32,0.144-0.734,0.215-1.24,0.215H-38v2.74h-1.25V549.295z"/>
	<path fill="none" d="M-35.74,552.614c0.146-0.04,0.282-0.104,0.405-0.194s0.224-0.211,0.3-0.36c0.077-0.15,0.115-0.339,0.115-0.565
		c0-0.232-0.033-0.427-0.1-0.58c-0.067-0.152-0.157-0.274-0.271-0.365c-0.113-0.09-0.243-0.151-0.39-0.185
		c-0.147-0.032-0.303-0.05-0.47-0.05H-38v2.359h1.83C-36.03,552.674-35.887,552.654-35.74,552.614z"/>
	<path fill="#FFFFFF" d="M-38,553.694h1.9c0.506,0,0.92-0.071,1.24-0.215c0.319-0.144,0.566-0.325,0.739-0.545
		s0.292-0.458,0.355-0.716c0.062-0.256,0.095-0.494,0.095-0.715c0-0.22-0.032-0.459-0.095-0.72c-0.063-0.26-0.183-0.5-0.355-0.72
		c-0.173-0.221-0.42-0.402-0.739-0.55c-0.32-0.146-0.734-0.22-1.24-0.22h-3.15v7.14H-38V553.694z M-38,550.314h1.851
		c0.167,0,0.322,0.018,0.47,0.05c0.146,0.033,0.276,0.095,0.39,0.185c0.113,0.091,0.203,0.213,0.271,0.365
		c0.066,0.153,0.1,0.348,0.1,0.58c0,0.227-0.038,0.415-0.115,0.565c-0.076,0.149-0.177,0.271-0.3,0.36s-0.259,0.154-0.405,0.194
		s-0.29,0.06-0.43,0.06H-38V550.314z"/>
	<path fill="#FFFFFF" d="M-32,555.505c0.293,0.34,0.651,0.607,1.075,0.805c0.423,0.197,0.902,0.295,1.435,0.295
		c0.434,0,0.816-0.073,1.15-0.22c0.333-0.147,0.666-0.41,1-0.79l0.19,0.84h0.8v-3.761h-3.04v0.95h1.899
		c-0.007,0.301-0.053,0.574-0.14,0.82c-0.087,0.247-0.215,0.455-0.385,0.625s-0.379,0.3-0.625,0.39
		c-0.247,0.091-0.53,0.133-0.851,0.125c-0.38,0-0.708-0.076-0.984-0.229c-0.277-0.153-0.502-0.358-0.675-0.615
		c-0.174-0.256-0.303-0.548-0.386-0.875c-0.083-0.326-0.125-0.659-0.125-1c0-0.34,0.042-0.673,0.125-1
		c0.083-0.325,0.212-0.618,0.386-0.875c0.173-0.256,0.397-0.462,0.675-0.614c0.276-0.154,0.604-0.23,0.984-0.23
		c0.228,0,0.443,0.029,0.65,0.09c0.206,0.061,0.393,0.15,0.56,0.27c0.166,0.121,0.306,0.27,0.415,0.445
		c0.11,0.178,0.182,0.383,0.216,0.615h1.22c-0.047-0.4-0.16-0.753-0.34-1.061c-0.181-0.306-0.407-0.562-0.681-0.765
		c-0.273-0.202-0.585-0.356-0.935-0.46s-0.719-0.154-1.105-0.154c-0.532,0-1.012,0.1-1.435,0.299
		c-0.424,0.201-0.782,0.471-1.075,0.811s-0.519,0.736-0.675,1.189c-0.157,0.455-0.235,0.935-0.235,1.44
		c0,0.515,0.078,0.997,0.235,1.45C-32.519,554.769-32.293,555.164-32,555.505z"/>
	<rect x="-25.26" y="553.174" fill="#FFFFFF" width="2.91" height="1.081"/>
	<path fill="#FFFFFF" d="M-19.61,556.435h1.25v-7h-0.93c-0.04,0.213-0.125,0.394-0.255,0.54s-0.287,0.268-0.47,0.359
		c-0.184,0.095-0.389,0.16-0.615,0.201c-0.228,0.039-0.46,0.06-0.7,0.06v0.899h1.72V556.435z"/>
	<path fill="#FFFFFF" d="M-13.53,555.625c-0.446,0-0.781-0.143-1.005-0.426c-0.224-0.282-0.328-0.638-0.314-1.064h-1.141
		c0.007,0.367,0.063,0.7,0.17,1c0.107,0.3,0.262,0.557,0.465,0.77c0.203,0.214,0.457,0.379,0.761,0.495
		c0.303,0.117,0.658,0.175,1.064,0.175c0.333,0,0.65-0.05,0.95-0.149c0.3-0.101,0.563-0.241,0.79-0.425s0.406-0.407,0.54-0.671
		c0.133-0.263,0.2-0.561,0.2-0.895c0-0.453-0.112-0.838-0.335-1.155c-0.224-0.316-0.535-0.515-0.936-0.595v-0.021
		c0.34-0.119,0.59-0.311,0.75-0.574s0.24-0.571,0.24-0.926c0-0.307-0.063-0.578-0.189-0.814c-0.128-0.237-0.296-0.432-0.506-0.585
		s-0.446-0.271-0.71-0.351s-0.531-0.119-0.805-0.119c-0.354,0-0.67,0.06-0.95,0.18c-0.279,0.12-0.519,0.287-0.715,0.5
		c-0.197,0.213-0.352,0.465-0.465,0.755s-0.177,0.604-0.19,0.944h1.141c-0.007-0.18,0.013-0.354,0.06-0.524s0.118-0.323,0.215-0.46
		c0.098-0.136,0.219-0.245,0.365-0.324c0.146-0.08,0.32-0.121,0.521-0.121c0.319,0,0.582,0.09,0.784,0.271
		c0.203,0.18,0.306,0.42,0.306,0.72c0,0.215-0.045,0.393-0.136,0.54c-0.09,0.147-0.208,0.263-0.354,0.345
		c-0.147,0.084-0.313,0.143-0.5,0.176c-0.188,0.033-0.373,0.047-0.56,0.039v0.851c0.227-0.006,0.447,0,0.664,0.021
		c0.218,0.02,0.411,0.071,0.586,0.154c0.173,0.083,0.312,0.205,0.42,0.365c0.106,0.16,0.159,0.377,0.159,0.65
		c0,0.399-0.129,0.708-0.385,0.925C-12.832,555.517-13.15,555.625-13.53,555.625z"/>
	<path fill="#FFFFFF" d="M-45.125,544.732v16.5h39.5v-16.5H-45.125z M-6.625,560.232h-37.5v-14.5h37.5V560.232z"/>
</g>
</svg>
