<?xml version="1.0" encoding="utf-8"?>
<!-- Generator: Adobe Illustrator 16.0.4, SVG Export Plug-In . SVG Version: 6.00 Build 0)  -->
<!DOCTYPE svg PUBLIC "-//W3C//DTD SVG 1.1//EN" "http://www.w3.org/Graphics/SVG/1.1/DTD/svg11.dtd">
<svg version="1.1" id="Layer_1" xmlns="http://www.w3.org/2000/svg" xmlns:xlink="http://www.w3.org/1999/xlink" x="0px" y="0px"
	 width="36.145px" height="18px" viewBox="5.73 544 36.145 18" enable-background="new 5.73 544 36.145 18" xml:space="preserve">
<g>
	<path fill="none" d="M9.376,560.185h28.853v-14.5H9.376V560.185z M24.04,551.376c0.156-0.453,0.382-0.85,0.676-1.189
		c0.293-0.34,0.65-0.609,1.074-0.811c0.423-0.199,0.902-0.299,1.436-0.299c0.386,0,0.755,0.051,1.104,0.154
		c0.351,0.104,0.661,0.258,0.936,0.46c0.272,0.203,0.5,0.459,0.68,0.765c0.18,0.308,0.293,0.66,0.34,1.061h-1.22
		c-0.034-0.232-0.105-0.438-0.215-0.615c-0.11-0.176-0.249-0.324-0.415-0.445c-0.167-0.119-0.354-0.209-0.561-0.27
		c-0.207-0.061-0.423-0.09-0.649-0.09c-0.38,0-0.708,0.076-0.985,0.23c-0.277,0.152-0.502,0.358-0.675,0.614
		c-0.173,0.257-0.302,0.55-0.385,0.875c-0.083,0.327-0.125,0.66-0.125,1c0,0.341,0.042,0.674,0.125,1
		c0.083,0.327,0.212,0.619,0.385,0.875c0.173,0.257,0.397,0.462,0.675,0.615s0.605,0.229,0.985,0.229
		c0.319,0.008,0.603-0.034,0.85-0.125c0.246-0.09,0.455-0.22,0.625-0.39s0.298-0.378,0.385-0.625c0.087-0.246,0.134-0.52,0.141-0.82
		h-1.9v-0.95h3.04v3.761h-0.8l-0.19-0.84c-0.334,0.38-0.667,0.643-1,0.79c-0.334,0.146-0.717,0.22-1.149,0.22
		c-0.533,0-1.013-0.098-1.436-0.295c-0.424-0.197-0.781-0.465-1.074-0.805c-0.294-0.341-0.52-0.736-0.676-1.19
		c-0.156-0.453-0.234-0.936-0.234-1.45C23.805,552.311,23.883,551.831,24.04,551.376z M17.465,549.247h3.149
		c0.506,0,0.92,0.074,1.24,0.22c0.32,0.147,0.566,0.329,0.74,0.55c0.173,0.22,0.292,0.46,0.354,0.72
		c0.063,0.261,0.095,0.5,0.095,0.72c0,0.221-0.031,0.459-0.095,0.715c-0.062,0.258-0.182,0.496-0.354,0.716
		c-0.174,0.22-0.42,0.401-0.74,0.545s-0.734,0.215-1.24,0.215h-1.899v2.74h-1.25V549.247z"/>
	<path fill="none" d="M20.975,552.566c0.146-0.04,0.282-0.104,0.404-0.194c0.123-0.09,0.224-0.211,0.301-0.36
		c0.077-0.15,0.114-0.339,0.114-0.565c0-0.232-0.032-0.427-0.1-0.58c-0.067-0.152-0.157-0.274-0.27-0.365
		c-0.114-0.09-0.243-0.151-0.391-0.185c-0.146-0.032-0.303-0.05-0.47-0.05h-1.85v2.359h1.829
		C20.685,552.626,20.828,552.606,20.975,552.566z"/>
	<path fill="#FFFFFF" d="M18.715,553.646h1.899c0.506,0,0.92-0.071,1.24-0.215s0.566-0.325,0.74-0.545
		c0.173-0.22,0.292-0.458,0.354-0.716c0.063-0.256,0.095-0.494,0.095-0.715c0-0.22-0.031-0.459-0.095-0.72
		c-0.062-0.26-0.182-0.5-0.354-0.72c-0.174-0.221-0.42-0.402-0.74-0.55c-0.32-0.146-0.734-0.22-1.24-0.22h-3.149v7.14h1.25V553.646z
		 M18.715,550.267h1.85c0.167,0,0.323,0.018,0.47,0.05c0.147,0.033,0.276,0.095,0.391,0.185c0.112,0.091,0.202,0.213,0.27,0.365
		c0.067,0.153,0.1,0.348,0.1,0.58c0,0.227-0.037,0.415-0.114,0.565c-0.077,0.149-0.178,0.271-0.301,0.36
		c-0.122,0.09-0.259,0.154-0.404,0.194c-0.147,0.04-0.29,0.06-0.431,0.06h-1.829V550.267z"/>
	<path fill="#FFFFFF" d="M24.715,555.457c0.293,0.34,0.65,0.607,1.074,0.805c0.423,0.197,0.902,0.295,1.436,0.295
		c0.433,0,0.815-0.073,1.149-0.22c0.333-0.147,0.666-0.41,1-0.79l0.19,0.84h0.8v-3.761h-3.04v0.95h1.9
		c-0.007,0.301-0.054,0.574-0.141,0.82c-0.087,0.247-0.215,0.455-0.385,0.625s-0.379,0.3-0.625,0.39
		c-0.247,0.091-0.53,0.133-0.85,0.125c-0.38,0-0.708-0.076-0.985-0.229s-0.502-0.358-0.675-0.615
		c-0.173-0.256-0.302-0.548-0.385-0.875c-0.083-0.326-0.125-0.659-0.125-1c0-0.34,0.042-0.673,0.125-1
		c0.083-0.325,0.212-0.618,0.385-0.875c0.173-0.256,0.397-0.462,0.675-0.614c0.277-0.154,0.605-0.23,0.985-0.23
		c0.227,0,0.442,0.029,0.649,0.09c0.206,0.061,0.394,0.15,0.561,0.27c0.166,0.121,0.305,0.27,0.415,0.445
		c0.109,0.178,0.181,0.383,0.215,0.615h1.22c-0.047-0.4-0.16-0.753-0.34-1.061c-0.18-0.306-0.407-0.562-0.68-0.765
		c-0.274-0.202-0.585-0.356-0.936-0.46c-0.35-0.104-0.719-0.154-1.104-0.154c-0.533,0-1.013,0.1-1.436,0.299
		c-0.424,0.201-0.781,0.471-1.074,0.811c-0.294,0.34-0.52,0.736-0.676,1.189c-0.156,0.455-0.234,0.935-0.234,1.44
		c0,0.515,0.078,0.997,0.234,1.45C24.196,554.721,24.421,555.116,24.715,555.457z"/>
	<path fill="#FFFFFF" d="M8.376,544.685v16.5h30.853v-16.5H8.376z M38.229,560.185H9.376v-14.5h28.853V560.185z"/>
</g>
</svg>
