<?xml version="1.0" encoding="utf-8"?>
<!-- Generator: Adobe Illustrator 16.0.4, SVG Export Plug-In . SVG Version: 6.00 Build 0)  -->
<!DOCTYPE svg PUBLIC "-//W3C//DTD SVG 1.1//EN" "http://www.w3.org/Graphics/SVG/1.1/DTD/svg11.dtd">
<svg version="1.1" id="Layer_1" xmlns="http://www.w3.org/2000/svg" xmlns:xlink="http://www.w3.org/1999/xlink" x="0px" y="0px"
	 width="36.145px" height="18px" viewBox="95.98 544 36.145 18" enable-background="new 95.98 544 36.145 18" xml:space="preserve">
<g>
	<path fill="none" d="M99.626,560.25h28.853v-14.5H99.626V560.25z M111.325,549.312h3.41c0.787,0,1.377,0.17,1.77,0.51
		c0.394,0.34,0.59,0.814,0.59,1.42c0,0.34-0.05,0.621-0.149,0.845c-0.101,0.224-0.217,0.404-0.351,0.54
		c-0.134,0.137-0.265,0.234-0.395,0.295s-0.225,0.1-0.285,0.12v0.021c0.107,0.014,0.222,0.047,0.345,0.1
		c0.123,0.054,0.238,0.139,0.346,0.255c0.105,0.117,0.194,0.269,0.265,0.455s0.105,0.42,0.105,0.7c0,0.42,0.031,0.802,0.095,1.145
		c0.062,0.344,0.161,0.589,0.295,0.735h-1.34c-0.094-0.153-0.148-0.323-0.165-0.51c-0.018-0.188-0.025-0.366-0.025-0.54
		c0-0.326-0.02-0.608-0.06-0.846c-0.04-0.235-0.113-0.433-0.221-0.59c-0.106-0.156-0.252-0.271-0.435-0.345
		c-0.183-0.073-0.419-0.11-0.705-0.11h-1.84v2.94h-1.25V549.312z"/>
	<path fill="none" d="M115.535,552.277c0.207-0.19,0.31-0.476,0.31-0.855c0-0.227-0.032-0.41-0.1-0.555
		c-0.067-0.143-0.159-0.256-0.275-0.335c-0.116-0.08-0.25-0.134-0.399-0.16c-0.15-0.026-0.305-0.04-0.465-0.04h-2.03v2.23h2.05
		C115.025,552.562,115.328,552.467,115.535,552.277z"/>
	<path fill="#FFFFFF" d="M112.575,553.512h1.84c0.286,0,0.522,0.037,0.705,0.11c0.183,0.074,0.328,0.188,0.435,0.345
		c0.107,0.157,0.181,0.354,0.221,0.59c0.04,0.237,0.06,0.52,0.06,0.846c0,0.174,0.008,0.353,0.025,0.54
		c0.017,0.187,0.071,0.356,0.165,0.51h1.34c-0.134-0.146-0.232-0.392-0.295-0.735c-0.063-0.343-0.095-0.725-0.095-1.145
		c0-0.28-0.035-0.514-0.105-0.7s-0.159-0.338-0.265-0.455c-0.107-0.116-0.223-0.201-0.346-0.255c-0.123-0.053-0.237-0.086-0.345-0.1
		v-0.021c0.061-0.021,0.155-0.06,0.285-0.12s0.261-0.158,0.395-0.295c0.134-0.136,0.25-0.316,0.351-0.54
		c0.1-0.224,0.149-0.505,0.149-0.845c0-0.605-0.196-1.08-0.59-1.42c-0.393-0.34-0.982-0.51-1.77-0.51h-3.41v7.14h1.25V553.512z
		 M112.575,550.332h2.03c0.16,0,0.314,0.014,0.465,0.04c0.149,0.026,0.283,0.08,0.399,0.16c0.116,0.079,0.208,0.192,0.275,0.335
		c0.067,0.145,0.1,0.328,0.1,0.555c0,0.38-0.103,0.665-0.31,0.855c-0.207,0.189-0.51,0.285-0.91,0.285h-2.05V550.332z"/>
	<path fill="#FFFFFF" d="M98.626,544.75v16.5h30.853v-16.5H98.626z M128.479,560.25H99.626v-14.5h28.853V560.25z"/>
</g>
</svg>
