<?xml version="1.0" encoding="utf-8"?>
<!-- Generator: Adobe Illustrator 18.1.0, SVG Export Plug-In . SVG Version: 6.00 Build 0)  -->
<svg version="1.1" id="Layer_1" xmlns="http://www.w3.org/2000/svg" xmlns:xlink="http://www.w3.org/1999/xlink" x="0px" y="0px"
	 width="42.2px" height="42.2px" viewBox="0 0 42.2 42.2" enable-background="new 0 0 42.2 42.2" xml:space="preserve">
<path fill="#FFFFFF" d="M41.7,42.2c-0.1,0-0.3,0-0.4-0.1L0.1,0.9C0,0.7,0,0.3,0.1,0.1s0.5-0.2,0.7,0l41.2,41.2
	c0.2,0.2,0.2,0.5,0,0.7C42,42.2,41.9,42.2,41.7,42.2z"/>
<path fill="#FFFFFF" d="M0,41.7c0-0.1,0-0.3,0.1-0.4L41.4,0.1c0.2-0.2,0.5-0.2,0.7,0s0.2,0.5,0,0.7L0.9,42.1c-0.2,0.2-0.5,0.2-0.7,0
	C0,42,0,41.9,0,41.7z"/>
</svg>
