<?xml version="1.0" encoding="utf-8"?>
<!-- Generator: Adobe Illustrator 18.1.0, SVG Export Plug-In . SVG Version: 6.00 Build 0)  -->
<svg version="1.1" id="Layer_1" xmlns="http://www.w3.org/2000/svg" xmlns:xlink="http://www.w3.org/1999/xlink" x="0px" y="0px"
	 width="58px" height="58px" viewBox="0 0 58 58" enable-background="new 0 0 58 58" xml:space="preserve">
<path fill="#FFFFFF" d="M29,58C13,58,0,45,0,29S13,0,29,0s29,13,29,29S45,58,29,58z M29,1C13.6,1,1,13.5,1,29s12.6,28,28,28
	s28-12.6,28-28S44.4,1,29,1z"/>
<path fill="#FFFFFF" d="M39.9,40.4c-0.1,0-0.3,0-0.4-0.1L17.7,18.4c-0.2-0.2-0.2-0.5,0-0.7s0.5-0.2,0.7,0l21.9,21.9
	c0.2,0.2,0.2,0.5,0,0.7C40.2,40.4,40.1,40.4,39.9,40.4z"/>
<path fill="#FFFFFF" d="M18,40.4c-0.1,0-0.3,0-0.4-0.1c-0.2-0.2-0.2-0.5,0-0.7l21.9-21.9c0.2-0.2,0.5-0.2,0.7,0s0.2,0.5,0,0.7
	L18.4,40.3C18.3,40.4,18.1,40.4,18,40.4z"/>
</svg>
