<?xml version="1.0" encoding="utf-8"?>
<!-- Generator: Adobe Illustrator 18.1.0, SVG Export Plug-In . SVG Version: 6.00 Build 0)  -->
<svg version="1.1" id="Layer_1" xmlns="http://www.w3.org/2000/svg" xmlns:xlink="http://www.w3.org/1999/xlink" x="0px" y="0px"
	 width="34.9px" height="34.9px" viewBox="0 0 34.9 34.9" enable-background="new 0 0 34.9 34.9" xml:space="preserve">
<g>
	<path fill="#FFFFFF" d="M0.5,34.9c-0.1,0-0.3,0-0.4-0.1c-0.2-0.2-0.2-0.5,0-0.7L34.1,0.1c0.2-0.2,0.5-0.2,0.7,0s0.2,0.5,0,0.7
		L0.9,34.8C0.8,34.9,0.6,34.9,0.5,34.9z"/>
	<g>
		<line fill="#FFFFFF" x1="0.5" y1="0.5" x2="34.4" y2="34.4"/>
		<path fill="#FFFFFF" d="M34.4,34.9c-0.1,0-0.3,0-0.4-0.1L0.1,0.9C0,0.7,0,0.3,0.1,0.1s0.5-0.2,0.7,0l33.9,33.9
			c0.2,0.2,0.2,0.5,0,0.7C34.7,34.9,34.6,34.9,34.4,34.9z"/>
	</g>
</g>
</svg>
